# xmcd CD database file
#
# Track frame offsets:
#	150
#	22875
#	49392
#
# Disc length: 822 seconds
#
# Revision: 0
# Processed by: cddbd v1.5.1PL0 Copyright (c) Steve Scherf et al.
# Submitted via: CDex 1.51
#
DISCID=1d033403
DTITLE=Yoshihiro Kikkawa And Noriko Satomi - DUO (Cello And Violin)
DYEAR=2000
DGENRE=New Age
TTITLE0=Grio
TTITLE1=DUO
TTITLE2=星めぐりの歌
EXTD=YEAR: 2000
EXTT0=
EXTT1=
EXTT2=
PLAYORDER=
